<?xml version="1.0" encoding="UTF-8"?>
<svg id="Livello_2" data-name="Livello 2" xmlns="http://www.w3.org/2000/svg" viewBox="0 0 72.36 93.49">
  <defs>
    <style>
      .cls-1 {
        fill: #b3a7d1;
      }
    </style>
  </defs>
  <g id="Livello_2-2" data-name="Livello 2">
    <path class="cls-1" d="M71.76,35.2c-4.32-14.67-20.41-22.26-33.34-27.67C31.21,4.62,23.84,2.31,16.44,0l1.06,1.39c4.46,5.75,5.6,14.05,1.52,20.19-1.26,1.96-2.85,3.7-4.62,5.26-3.84,3.3-7.44,7.21-10.23,11.71-13.77,22.43,9.47,38.53,27.35,47.63,4.98,2.5,9.99,4.96,15.05,7.29l-.24-1.6c-.17-1.52,.12-3.22,.49-4.74,1.23-4.95,3.56-9.53,6.05-13.98,3.41-5.95,7.4-11.56,11.8-16.82,4.97-5.8,9.34-13.14,7.1-21.16Zm-59.92-.34c1.6-1.84,3.38-3.58,5.11-5.31,5.99-5.77,8.25-14.27,5.14-22.09-.29-.75-.61-1.48-.96-2.2,1.2,1.62,2.32,3.29,3.32,5.03,3.69,6.32,5.88,13.74,5.02,20.99-.53,5.62-3.16,10.16-5.99,14.99-4.53,8.4-8.64,19.23-3.64,28.35,.88,1.65,1.96,3.12,3.13,4.5-1.12-.77-2.24-1.55-3.33-2.36C3.8,64.84-2.95,51.19,11.84,34.86Zm15.45,47.05c-9.12-9.22-8.75-17.38-2.95-28.83,1.66-3.47,3.56-6.43,5.46-9.89,1.88-3.57,3.03-7.59,3.22-11.64,.42-10.19-4.69-19.94-11.58-27.3,5.22,4.65,9.98,9.79,13.78,15.56,6.98,10.43,10.59,23.12,6.65,35.15-3,8.26-5,17.22-3.1,25.98,.78,3.2,1.96,6.56,4.1,9.12-5.38-2.32-10.6-5.05-15.58-8.14Zm19.49-.19c-.79,2.02-1.51,4.2-1.89,6.34-.15,.82-.27,1.61-.31,2.41-5.81-8.18-4.38-19.23-1.22-28.29,.68-2,1.52-4.04,2.23-6.03,1.46-4.29,2.07-8.91,1.77-13.43-.95-15.43-12.83-29.84-25.3-39.01,10.08,6.12,19.46,13.71,26.86,22.8,4.1,5.11,7.52,10.79,9.61,16.99,2.12,6.07,1.85,12.86-.64,18.81-4.3,6.12-8.35,12.45-11.11,19.4Zm16.28-26.63c-.87,1.22-1.75,2.43-2.63,3.66,.48-1.77,.86-3.57,1.08-5.42,1.21-11.5-2.59-20.38-10.05-28.95C43.31,15.42,33.28,8.54,22.59,3.07c11.78,3.96,23.15,9.94,32.72,17.66,5.02,4.22,9.94,9.39,11.58,15.74,1.74,6.26,.14,13.39-3.83,18.63Z"/>
  </g>
</svg>